<svg xmlns="http://www.w3.org/2000/svg" xmlns:xlink="http://www.w3.org/1999/xlink" width="500" zoomAndPan="magnify" viewBox="0 0 375 374.999991" height="500" preserveAspectRatio="xMidYMid meet" version="1.2"><defs><clipPath id="6032602069"><path d="M 74.308594 56.277344 L 300.808594 56.277344 L 300.808594 318.777344 L 74.308594 318.777344 Z M 74.308594 56.277344 "/></clipPath></defs><g id="8aa39141a8"><rect x="0" width="375" y="0" height="374.999991" style="fill:#ffffff;fill-opacity:1;stroke:none;"/><rect x="0" width="375" y="0" height="374.999991" style="fill:#3b82f6;fill-opacity:1;stroke:none;"/><g clip-rule="nonzero" clip-path="url(#6032602069)"><path style=" stroke:none;fill-rule:nonzero;fill:#000000;fill-opacity:1;" d="M 205.410156 73.570312 L 140.546875 73.570312 C 145.464844 70.761719 150.542969 68.28125 155.78125 66.136719 C 161.023438 63.988281 166.378906 62.191406 171.855469 60.742188 C 177.328125 59.292969 182.875 58.203125 188.492188 57.476562 C 194.105469 56.753906 199.746094 56.394531 205.410156 56.402344 C 206.042969 56.402344 206.679688 56.402344 207.316406 56.402344 C 207.804688 56.402344 208.300781 56.402344 208.789062 56.429688 L 209.761719 56.453125 L 209.976562 56.453125 L 211.488281 56.515625 C 211.984375 56.542969 212.488281 56.5625 213 56.597656 C 213.507812 56.632812 214 56.660156 214.503906 56.691406 C 215.511719 56.761719 216.515625 56.84375 217.511719 56.933594 C 218.011719 56.976562 218.507812 57.027344 219.007812 57.078125 C 220 57.183594 220.996094 57.300781 221.984375 57.421875 C 222.558594 57.492188 223.144531 57.570312 223.722656 57.652344 C 224.300781 57.734375 224.839844 57.820312 225.386719 57.90625 C 226.230469 58.03125 227.066406 58.171875 227.894531 58.316406 C 228.875 58.488281 229.851562 58.667969 230.820312 58.855469 C 240.976562 60.863281 250.757812 64.027344 260.164062 68.351562 C 261.035156 68.757812 261.902344 69.167969 262.769531 69.585938 C 263.640625 70.003906 264.378906 70.375 265.175781 70.789062 C 266.046875 71.222656 266.9375 71.707031 267.808594 72.179688 C 267.871094 72.207031 267.929688 72.238281 267.984375 72.273438 C 268.792969 72.710938 269.59375 73.144531 270.394531 73.621094 C 271.027344 73.980469 271.660156 74.351562 272.285156 74.71875 L 272.308594 74.71875 C 272.867188 75.046875 273.417969 75.382812 273.964844 75.722656 C 274.023438 75.753906 274.078125 75.785156 274.128906 75.820312 C 274.402344 75.988281 274.667969 76.164062 274.945312 76.328125 C 274.996094 76.359375 275.046875 76.390625 275.097656 76.417969 C 275.390625 76.617188 275.683594 76.796875 275.96875 76.988281 C 281.558594 80.546875 286.847656 84.507812 291.832031 88.878906 C 294.03125 90.796875 296.164062 92.792969 298.230469 94.863281 C 298.621094 95.257812 298.96875 95.6875 299.273438 96.148438 C 299.578125 96.613281 299.835938 97.101562 300.042969 97.613281 C 300.253906 98.128906 300.410156 98.65625 300.515625 99.203125 C 300.621094 99.746094 300.671875 100.296875 300.671875 100.851562 C 300.667969 101.40625 300.609375 101.953125 300.5 102.5 C 300.390625 103.042969 300.226562 103.570312 300.011719 104.082031 C 299.796875 104.59375 299.535156 105.078125 299.226562 105.539062 C 298.914062 105.996094 298.5625 106.421875 298.167969 106.8125 L 298.03125 106.953125 C 297.636719 107.347656 297.207031 107.699219 296.746094 108.007812 C 296.28125 108.320312 295.792969 108.578125 295.277344 108.792969 C 294.761719 109.007812 294.230469 109.167969 293.683594 109.277344 C 293.140625 109.386719 292.585938 109.441406 292.03125 109.441406 C 291.472656 109.441406 290.921875 109.386719 290.375 109.277344 C 289.828125 109.167969 289.296875 109.007812 288.78125 108.792969 C 288.265625 108.578125 287.777344 108.320312 287.3125 108.007812 C 286.851562 107.699219 286.421875 107.347656 286.027344 106.953125 C 283.980469 104.902344 281.859375 102.9375 279.660156 101.054688 C 274.535156 96.652344 269.058594 92.738281 263.238281 89.308594 C 257.414062 85.882812 251.335938 82.996094 245 80.652344 C 238.664062 78.304688 232.171875 76.539062 225.519531 75.347656 C 218.867188 74.160156 212.164062 73.566406 205.410156 73.570312 Z M 298.105469 268.050781 C 297.710938 267.65625 297.28125 267.304688 296.816406 266.992188 C 296.355469 266.683594 295.863281 266.421875 295.347656 266.207031 C 294.832031 265.992188 294.300781 265.832031 293.753906 265.722656 C 293.207031 265.613281 292.652344 265.558594 292.09375 265.558594 C 291.535156 265.558594 290.984375 265.613281 290.4375 265.722656 C 289.886719 265.832031 289.355469 265.992188 288.839844 266.207031 C 288.324219 266.421875 287.835938 266.683594 287.371094 266.992188 C 286.910156 267.304688 286.480469 267.65625 286.085938 268.050781 C 284.058594 270.109375 281.945312 272.078125 279.746094 273.960938 C 259.503906 291.425781 233.394531 301.398438 205.410156 301.398438 C 142.585938 301.398438 91.476562 250.289062 91.476562 187.472656 C 91.476562 175.199219 93.414062 163.246094 97.296875 151.605469 L 79.339844 151.605469 C 75.984375 163.332031 74.304688 175.292969 74.308594 187.492188 C 74.308594 259.78125 133.121094 318.59375 205.410156 318.59375 C 211.601562 318.597656 217.757812 318.167969 223.886719 317.296875 C 230.019531 316.429688 236.054688 315.128906 242 313.402344 C 247.945312 311.675781 253.734375 309.535156 259.375 306.988281 C 265.015625 304.4375 270.449219 301.5 275.671875 298.175781 C 281.371094 294.550781 286.757812 290.507812 291.835938 286.058594 C 294.039062 284.128906 296.175781 282.128906 298.238281 280.058594 C 298.628906 279.664062 298.976562 279.234375 299.277344 278.769531 C 299.582031 278.308594 299.839844 277.820312 300.050781 277.304688 C 300.257812 276.792969 300.414062 276.261719 300.519531 275.71875 C 300.625 275.171875 300.675781 274.625 300.671875 274.070312 C 300.667969 273.515625 300.609375 272.964844 300.5 272.421875 C 300.386719 271.878906 300.226562 271.351562 300.011719 270.839844 C 299.796875 270.328125 299.535156 269.84375 299.226562 269.382812 C 298.914062 268.925781 298.5625 268.5 298.167969 268.109375 Z M 255.015625 125.753906 C 257.253906 127.542969 259.386719 129.449219 261.410156 131.472656 C 261.804688 131.875 262.234375 132.234375 262.699219 132.550781 C 263.164062 132.863281 263.652344 133.132812 264.171875 133.351562 C 264.6875 133.570312 265.222656 133.738281 265.769531 133.851562 C 266.320312 133.964844 266.878906 134.023438 267.4375 134.027344 C 268 134.03125 268.558594 133.980469 269.109375 133.871094 C 269.660156 133.765625 270.195312 133.609375 270.714844 133.394531 C 271.234375 133.183594 271.730469 132.921875 272.199219 132.613281 C 272.667969 132.304688 273.101562 131.953125 273.5 131.558594 L 273.625 131.429688 C 274.019531 131.035156 274.371094 130.605469 274.679688 130.144531 C 274.992188 129.679688 275.253906 129.1875 275.464844 128.671875 C 275.679688 128.160156 275.839844 127.628906 275.949219 127.082031 C 276.058594 126.53125 276.109375 125.980469 276.109375 125.421875 C 276.109375 124.867188 276.058594 124.3125 275.949219 123.765625 C 275.839844 123.21875 275.679688 122.6875 275.464844 122.171875 C 275.253906 121.65625 274.992188 121.167969 274.679688 120.703125 C 274.371094 120.238281 274.019531 119.808594 273.625 119.414062 C 271.578125 117.363281 269.4375 115.410156 267.214844 113.554688 C 262.914062 109.960938 258.335938 106.765625 253.476562 103.96875 C 248.621094 101.171875 243.554688 98.820312 238.285156 96.910156 C 233.015625 95 227.621094 93.5625 222.097656 92.59375 C 216.578125 91.628906 211.015625 91.148438 205.410156 91.152344 L 116.546875 91.152344 C 110.847656 96.421875 105.660156 102.148438 100.980469 108.339844 L 205.410156 108.339844 C 209.886719 108.332031 214.332031 108.703125 218.746094 109.453125 C 223.160156 110.203125 227.480469 111.316406 231.703125 112.800781 C 235.925781 114.285156 239.996094 116.113281 243.910156 118.285156 C 247.824219 120.460938 251.527344 122.949219 255.015625 125.753906 Z M 115.949219 151.625 C 113.664062 157.328125 111.941406 163.195312 110.785156 169.230469 C 109.625 175.261719 109.050781 181.351562 109.0625 187.492188 C 109.0625 240.609375 152.273438 283.824219 205.394531 283.824219 C 211 283.832031 216.566406 283.355469 222.085938 282.390625 C 227.609375 281.425781 233.003906 279.988281 238.273438 278.078125 C 243.546875 276.167969 248.609375 273.816406 253.46875 271.023438 C 258.328125 268.226562 262.90625 265.03125 267.207031 261.4375 C 269.421875 259.585938 271.558594 257.628906 273.613281 255.566406 C 274.007812 255.171875 274.359375 254.742188 274.667969 254.28125 C 274.980469 253.816406 275.242188 253.324219 275.453125 252.8125 C 275.667969 252.296875 275.828125 251.765625 275.9375 251.21875 C 276.046875 250.667969 276.101562 250.117188 276.101562 249.558594 C 276.101562 249 276.046875 248.449219 275.9375 247.902344 C 275.828125 247.355469 275.667969 246.824219 275.453125 246.308594 C 275.242188 245.792969 274.980469 245.304688 274.667969 244.839844 C 274.359375 244.375 274.007812 243.945312 273.613281 243.550781 L 273.484375 243.421875 C 273.082031 243.027344 272.648438 242.675781 272.179688 242.363281 C 271.710938 242.054688 271.21875 241.792969 270.695312 241.582031 C 270.175781 241.371094 269.640625 241.210938 269.089844 241.105469 C 268.535156 241 267.980469 240.949219 267.417969 240.953125 C 266.855469 240.957031 266.300781 241.015625 265.75 241.128906 C 265.199219 241.246094 264.667969 241.410156 264.148438 241.628906 C 263.632812 241.847656 263.140625 242.117188 262.675781 242.433594 C 262.210938 242.75 261.785156 243.109375 261.390625 243.507812 C 259.371094 245.53125 257.246094 247.441406 255.015625 249.230469 C 251.527344 252.035156 247.824219 254.523438 243.914062 256.699219 C 240 258.875 235.929688 260.707031 231.707031 262.1875 C 227.480469 263.671875 223.160156 264.789062 218.746094 265.539062 C 214.332031 266.285156 209.886719 266.65625 205.410156 266.648438 C 161.757812 266.648438 126.246094 231.136719 126.246094 187.484375 C 126.253906 181.246094 126.992188 175.097656 128.460938 169.035156 C 129.929688 162.972656 132.085938 157.167969 134.933594 151.617188 Z M 228.945312 151.808594 C 231.347656 153.390625 233.566406 155.199219 235.605469 157.230469 C 235.996094 157.632812 236.425781 157.992188 236.890625 158.308594 C 237.355469 158.625 237.847656 158.894531 238.363281 159.113281 C 238.882812 159.332031 239.417969 159.5 239.96875 159.613281 C 240.519531 159.730469 241.074219 159.789062 241.636719 159.792969 C 242.199219 159.796875 242.757812 159.746094 243.308594 159.640625 C 243.859375 159.535156 244.398438 159.378906 244.917969 159.167969 C 245.441406 158.957031 245.9375 158.695312 246.40625 158.386719 C 246.875 158.078125 247.308594 157.722656 247.710938 157.328125 L 247.839844 157.199219 C 248.234375 156.804688 248.585938 156.375 248.894531 155.910156 C 249.207031 155.445312 249.464844 154.957031 249.679688 154.441406 C 249.894531 153.925781 250.054688 153.394531 250.164062 152.847656 C 250.269531 152.300781 250.324219 151.75 250.324219 151.191406 C 250.324219 150.632812 250.269531 150.082031 250.164062 149.535156 C 250.054688 148.988281 249.894531 148.457031 249.679688 147.941406 C 249.464844 147.425781 249.207031 146.9375 248.894531 146.472656 C 248.585938 146.007812 248.234375 145.578125 247.839844 145.183594 C 245.058594 142.390625 242.03125 139.894531 238.757812 137.703125 C 235.480469 135.507812 232.023438 133.65625 228.382812 132.144531 C 224.738281 130.636719 220.984375 129.496094 217.117188 128.730469 C 213.25 127.964844 209.347656 127.585938 205.40625 127.589844 L 88.863281 127.589844 C 86.007812 133.140625 83.566406 138.863281 81.539062 144.761719 L 205.410156 144.761719 C 209.59375 144.757812 213.691406 145.355469 217.699219 146.554688 C 221.707031 147.753906 225.460938 149.503906 228.953125 151.808594 Z M 182.152344 151.625 L 157.390625 151.625 C 155.472656 154.199219 153.769531 156.910156 152.28125 159.753906 C 150.796875 162.601562 149.550781 165.550781 148.539062 168.597656 C 147.527344 171.644531 146.765625 174.753906 146.253906 177.921875 C 145.738281 181.09375 145.484375 184.28125 145.484375 187.492188 C 145.484375 220.507812 172.363281 247.402344 205.394531 247.402344 C 208.601562 247.394531 211.789062 247.128906 214.953125 246.613281 C 218.117188 246.09375 221.21875 245.328125 224.261719 244.3125 C 227.304688 243.296875 230.246094 242.042969 233.085938 240.558594 C 235.925781 239.070312 238.632812 237.367188 241.199219 235.445312 C 243.5625 233.695312 245.78125 231.777344 247.859375 229.695312 C 248.246094 229.300781 248.59375 228.871094 248.898438 228.40625 C 249.203125 227.945312 249.460938 227.457031 249.667969 226.941406 C 249.875 226.429688 250.03125 225.898438 250.136719 225.355469 C 250.242188 224.808594 250.292969 224.261719 250.289062 223.707031 C 250.285156 223.152344 250.226562 222.605469 250.117188 222.058594 C 250.007812 221.515625 249.84375 220.992188 249.628906 220.480469 C 249.414062 219.96875 249.152344 219.484375 248.839844 219.023438 C 248.53125 218.5625 248.179688 218.140625 247.785156 217.75 L 247.710938 217.675781 C 247.308594 217.28125 246.875 216.925781 246.40625 216.617188 C 245.933594 216.308594 245.4375 216.046875 244.917969 215.835938 C 244.394531 215.625 243.855469 215.464844 243.304688 215.359375 C 242.75 215.257812 242.191406 215.207031 241.628906 215.210938 C 241.066406 215.214844 240.511719 215.277344 239.960938 215.390625 C 239.410156 215.507812 238.875 215.675781 238.355469 215.894531 C 237.839844 216.117188 237.347656 216.386719 236.882812 216.703125 C 236.417969 217.019531 235.988281 217.382812 235.59375 217.785156 C 233.566406 219.820312 231.351562 221.628906 228.953125 223.210938 C 227.78125 223.996094 226.574219 224.722656 225.328125 225.390625 C 224.085938 226.058594 222.8125 226.664062 221.507812 227.203125 C 220.203125 227.746094 218.878906 228.222656 217.527344 228.632812 C 216.175781 229.042969 214.808594 229.382812 213.421875 229.65625 C 212.039062 229.933594 210.644531 230.136719 209.238281 230.273438 C 207.832031 230.410156 206.425781 230.476562 205.011719 230.472656 C 203.601562 230.46875 202.191406 230.398438 200.789062 230.253906 C 199.382812 230.113281 197.988281 229.898438 196.605469 229.621094 C 195.222656 229.339844 193.855469 228.992188 192.507812 228.574219 C 191.160156 228.160156 189.832031 227.675781 188.53125 227.128906 C 187.230469 226.582031 185.960938 225.972656 184.71875 225.300781 C 183.476562 224.625 182.273438 223.894531 181.105469 223.101562 C 179.9375 222.308594 178.808594 221.460938 177.726562 220.554688 C 176.640625 219.652344 175.605469 218.699219 174.613281 217.691406 C 173.625 216.683594 172.6875 215.632812 171.800781 214.53125 C 170.917969 213.433594 170.085938 212.292969 169.316406 211.109375 C 168.542969 209.929688 167.828125 208.710938 167.179688 207.460938 C 166.527344 206.207031 165.9375 204.925781 165.414062 203.617188 C 164.886719 202.304688 164.429688 200.972656 164.035156 199.617188 C 163.640625 198.261719 163.316406 196.886719 163.058594 195.5 C 162.800781 194.113281 162.613281 192.714844 162.496094 191.308594 C 162.375 189.902344 162.328125 188.492188 162.347656 187.082031 C 162.367188 185.667969 162.460938 184.261719 162.617188 182.859375 C 162.777344 181.457031 163.007812 180.066406 163.304688 178.6875 C 163.605469 177.304688 163.96875 175.945312 164.402344 174.601562 C 164.835938 173.257812 165.332031 171.9375 165.894531 170.644531 C 166.457031 169.347656 167.085938 168.085938 167.773438 166.851562 C 168.460938 165.621094 169.207031 164.425781 170.015625 163.265625 C 170.824219 162.109375 171.683594 160.992188 172.601562 159.917969 C 173.519531 158.847656 174.488281 157.820312 175.507812 156.84375 C 176.523438 155.867188 177.589844 154.941406 178.699219 154.070312 C 179.808594 153.199219 180.960938 152.382812 182.152344 151.625 Z M 182.152344 151.625 "/></g></g></svg>